<?xml version="1.0" encoding="UTF-8" standalone="no"?>
<svg
   width="355.02151pt"
   height="409.94119pt"
   viewBox="0 0 355.02152 409.94119"
   version="1.1"
   id="svg27"
   xmlns="http://www.w3.org/2000/svg"
   xmlns:svg="http://www.w3.org/2000/svg">
  <defs
     id="defs31">
    <rect
       x="152.27473"
       y="199.72778"
       width="456.11594"
       height="120.40328"
       id="rect1024" />
    <clipPath
       clipPathUnits="userSpaceOnUse"
       id="clipPath2319">
      <path
         style="fill:none;stroke:#2c3e50;stroke-width:7.9103;stroke-miterlimit:10;stroke-dasharray:none;stroke-opacity:1;paint-order:normal"
         id="path2321"
         transform="matrix(0.73498976,0.00141108,-0.00141108,0.73498976,2.9132273,-7.0259025)"
         d="M 620.43102,431.32703 379.45378,571.07605 137.93896,432.25815 137.40137,153.69122 378.37862,13.9422 619.89344,152.7601 Z" />
    </clipPath>
    <rect
       x="152.27473"
       y="199.72778"
       width="456.11594"
       height="120.40328"
       id="rect2377" />
    <rect
       x="152.27473"
       y="199.72778"
       width="456.11594"
       height="120.40328"
       id="rect2439" />
    <rect
       x="152.27473"
       y="199.72778"
       width="456.11594"
       height="120.40328"
       id="rect2476" />
    <rect
       x="152.27473"
       y="199.72778"
       width="456.11594"
       height="120.40328"
       id="rect2476-5" />
    <clipPath
       clipPathUnits="userSpaceOnUse"
       id="clipPath3052">
      <rect
         style="opacity:1;fill:none;stroke:#2c3e50;stroke-width:1.42851;stroke-miterlimit:10;stroke-dasharray:none"
         id="rect3054"
         width="260.79251"
         height="484.3718"
         x="241.99734"
         y="-446.67032"
         ry="0"
         transform="matrix(1,0,-0.31115667,-0.95035863,0,0)" />
    </clipPath>
    <clipPath
       clipPathUnits="userSpaceOnUse"
       id="clipPath3056">
      <rect
         style="fill:none;stroke:#2c3e50;stroke-width:1.4285;stroke-miterlimit:10;stroke-dasharray:none"
         id="rect3058"
         width="260.79279"
         height="484.37161"
         x="-19.967594"
         y="-450.01889"
         ry="0"
         transform="matrix(1,0,-0.31115714,-0.95035848,0,0)" />
    </clipPath>
    <clipPath
       clipPathUnits="userSpaceOnUse"
       id="clipPath3060">
      <path
         style="fill:none;stroke:#2c3e50;stroke-width:7.9103;stroke-miterlimit:10;stroke-dasharray:none;stroke-opacity:1;paint-order:normal"
         id="path3062"
         transform="matrix(0.73498976,-0.00141108,-0.00141108,-0.73498976,-100.77174,420.27049)"
         d="M 620.43102,431.32703 379.45378,571.07605 137.93896,432.25815 137.40137,153.69122 378.37862,13.9422 619.89344,152.7601 Z" />
    </clipPath>
  </defs>
  <g
     id="layer2"
     clip-path="url(#clipPath3060)"
     transform="translate(0.1957224,0.22601093)"
     style="opacity:0.9">
    <g
       id="g2969"
       clip-path="url(#clipPath3056)"
       transform="matrix(0.99999998,0,0,-0.99999998,-99.847883,411.80436)"
       style="opacity:0.85">
      <path
         style="fill:#ffe617;fill-opacity:1;fill-rule:nonzero;stroke:none;stroke-width:1.7228"
         d="m 0,434.79636 h 562 v -47.1987 H 0 Z m 0,0"
         id="path2947" />
      <path
         style="fill:#fd9951;fill-opacity:1;fill-rule:nonzero;stroke:none"
         d="M 0,387.59766 H 562 V 354.17969 H 0 Z m 0,0"
         id="path2949" />
      <path
         style="fill:#7dc54c;fill-opacity:1;fill-rule:nonzero;stroke:none"
         d="m 0,354.17969 h 562 v -61.4375 H 0 Z m 0,0"
         id="path2951" />
      <path
         style="fill:#33b0c7;fill-opacity:1;fill-rule:nonzero;stroke:none"
         d="M 0,292.74609 H 562 V 248.88672 H 0 Z m 0,0"
         id="path2953" />
      <path
         style="fill:#7f2891;fill-opacity:1;fill-rule:nonzero;stroke:none"
         d="M 0,248.88281 H 562 V 209.60937 H 0 Z m 0,0"
         id="path2955" />
      <path
         style="fill:#f03f26;fill-opacity:1;fill-rule:nonzero;stroke:none"
         d="M 0,209.60937 H 562 V 173.0625 H 0 Z m 0,0"
         id="path2957" />
      <path
         style="fill:#66a399;fill-opacity:1;fill-rule:nonzero;stroke:none"
         d="M 0,173.0625 H 562 V 126.40234 H 0 Z m 0,0"
         id="path2959" />
      <path
         style="fill:#ca8a35;fill-opacity:1;fill-rule:nonzero;stroke:none"
         d="M 0,126.40234 H 562 V 79.507813 H 0 Z m 0,0"
         id="path2961" />
      <path
         style="fill:#b3e1b5;fill-opacity:1;fill-rule:nonzero;stroke:none"
         d="M 0,79.507813 H 562 V 60.378906 H 0 Z m 0,0"
         id="path2963" />
      <path
         style="fill:#00916e;fill-opacity:1;fill-rule:nonzero;stroke:none"
         d="M 0,60.378906 H 562 V 28.027344 H 0 Z m 0,0"
         id="path2965" />
      <path
         style="fill:#7d9e54;fill-opacity:1;fill-rule:nonzero;stroke:none"
         d="M 0,28.027344 H 562 V -13.5 H 0 Z m 0,0"
         id="path2967" />
    </g>
    <g
       id="surface6-8"
       clip-path="url(#clipPath3052)"
       transform="matrix(0.99999998,0,0,-0.99999998,-116.34788,458.43694)"
       style="opacity:0.85">
      <path
         style="fill:#ffe617;fill-opacity:1;fill-rule:nonzero;stroke:none;stroke-width:1.63337"
         d="M 0,430.02339 H 562 V 387.59766 H 0 Z m 0,0"
         id="path4-7" />
      <path
         style="fill:#fd9951;fill-opacity:1;fill-rule:nonzero;stroke:none"
         d="M 0,387.59766 H 562 V 354.17969 H 0 Z m 0,0"
         id="path6-2" />
      <path
         style="fill:#7dc54c;fill-opacity:1;fill-rule:nonzero;stroke:none"
         d="m 0,354.17969 h 562 v -61.4375 H 0 Z m 0,0"
         id="path8-1" />
      <path
         style="fill:#33b0c7;fill-opacity:1;fill-rule:nonzero;stroke:none"
         d="M 0,292.74609 H 562 V 248.88672 H 0 Z m 0,0"
         id="path10-9" />
      <path
         style="fill:#7f2891;fill-opacity:1;fill-rule:nonzero;stroke:none"
         d="M 0,248.88281 H 562 V 209.60937 H 0 Z m 0,0"
         id="path12-9" />
      <path
         style="fill:#f03f26;fill-opacity:1;fill-rule:nonzero;stroke:none"
         d="M 0,209.60937 H 562 V 173.0625 H 0 Z m 0,0"
         id="path14-1" />
      <path
         style="fill:#66a399;fill-opacity:1;fill-rule:nonzero;stroke:none"
         d="M 0,173.0625 H 562 V 126.40234 H 0 Z m 0,0"
         id="path16-7" />
      <path
         style="fill:#ca8a35;fill-opacity:1;fill-rule:nonzero;stroke:none"
         d="M 0,126.40234 H 562 V 79.507813 H 0 Z m 0,0"
         id="path18-1" />
      <path
         style="fill:#b3e1b5;fill-opacity:1;fill-rule:nonzero;stroke:none"
         d="M 0,79.507813 H 562 V 60.378906 H 0 Z m 0,0"
         id="path20-6" />
      <path
         style="fill:#00916e;fill-opacity:1;fill-rule:nonzero;stroke:none"
         d="M 0,60.378906 H 562 V 28.027344 H 0 Z m 0,0"
         id="path22-2" />
      <path
         style="fill:#7d9e54;fill-opacity:1;fill-rule:nonzero;stroke:none"
         d="M 0,28.027344 H 562 V -13.5 H 0 Z m 0,0"
         id="path24-6" />
    </g>
  </g>
  <path
     style="display:inline;fill:none;stroke:#2c3e50;stroke-width:11.0507;stroke-miterlimit:10;stroke-dasharray:none;stroke-opacity:1;paint-order:normal"
     id="path870-5"
     d="M 620.43102,431.32703 379.45378,571.07605 137.93896,432.25815 137.40137,153.69122 378.37862,13.9422 619.89344,152.7601 Z"
     transform="matrix(0.7185598,0.00137954,-0.00137954,0.7185598,-94.359661,-5.7374313)" />
  <g
     id="layer1"
     transform="translate(2.7013076,0.22601093)"
     style="stroke-width:1.25;stroke-dasharray:none">
    <text
       xml:space="preserve"
       transform="matrix(0.67828827,0,0,0.67828827,-141.09063,94.99427)"
       id="text2474"
       style="font-style:normal;font-variant:normal;font-weight:bold;font-stretch:normal;font-size:89.9323px;line-height:1.25;font-family:Roboto;-inkscape-font-specification:'Roboto Bold';text-align:center;letter-spacing:0px;word-spacing:0px;white-space:pre;shape-inside:url(#rect2476);display:inline;fill:#2c3e50;fill-opacity:1;stroke:#ffffff;stroke-width:1.4743;stroke-dasharray:none;stroke-opacity:1"
       x="210.70633"
       y="0"><tspan
         x="281.06936"
         y="278.41928"
         id="tspan6908">deep</tspan></text>
    <text
       xml:space="preserve"
       transform="matrix(0.60306504,0,0,0.60306504,9.088994,157.00932)"
       id="text2474-3"
       style="font-style:normal;font-variant:normal;font-weight:bold;font-stretch:normal;font-size:101.15px;line-height:1.25;font-family:Roboto;-inkscape-font-specification:'Roboto Bold';text-align:center;letter-spacing:0px;word-spacing:0px;white-space:pre;shape-inside:url(#rect2476-5);display:inline;fill:#2c3e50;fill-opacity:1;stroke:#ffffff;stroke-width:1.6582;stroke-dasharray:none;stroke-opacity:1"
       x="210.70633"
       y="0"><tspan
         x="278.7138"
         y="288.23477"
         id="tspan6910">time</tspan></text>
  </g>
</svg>
